<?xml version="1.0" encoding="UTF-8" standalone="no"?>
<!-- Created with Inkscape (http://www.inkscape.org/) -->

<svg
   width="120.14106mm"
   height="25.685461mm"
   viewBox="0 0 120.14106 25.685461"
   version="1.1"
   id="svg5"
   inkscape:version="1.2.2 (732a01da63, 2022-12-09)"
   sodipodi:docname="simple_pen.svg"
   xmlns:inkscape="http://www.inkscape.org/namespaces/inkscape"
   xmlns:sodipodi="http://sodipodi.sourceforge.net/DTD/sodipodi-0.dtd"
   xmlns="http://www.w3.org/2000/svg"
   xmlns:svg="http://www.w3.org/2000/svg">
  <sodipodi:namedview
     id="namedview7"
     pagecolor="#ffffff"
     bordercolor="#000000"
     borderopacity="0.25"
     inkscape:showpageshadow="2"
     inkscape:pageopacity="0.0"
     inkscape:pagecheckerboard="0"
     inkscape:deskcolor="#d1d1d1"
     inkscape:document-units="mm"
     showgrid="false"
     inkscape:zoom="1"
     inkscape:cx="221.5"
     inkscape:cy="149.5"
     inkscape:window-width="1920"
     inkscape:window-height="1001"
     inkscape:window-x="-9"
     inkscape:window-y="-9"
     inkscape:window-maximized="1"
     inkscape:current-layer="layer3" />
  <defs
     id="defs2" />
  <g
     inkscape:groupmode="layer"
     id="layer2"
     inkscape:label="carte"
     transform="translate(-222.81112,-28.558204)" />
  <g
     inkscape:groupmode="layer"
     id="layer3"
     inkscape:label="stylo"
     transform="translate(-222.81112,-28.558204)">
    <path
       id="rect2491"
       style="fill:#000000;stroke:#000000;stroke-width:0;stroke-linecap:round;stroke-dasharray:none;paint-order:fill markers stroke"
       d="m 242.44791,28.573098 -19.63679,5.415895 19.63843,5.409985 z m 3.77935,-5.62e-4 0.002,10.825873 81.44022,-0.01224 0.002,10.982229 -27.18874,0.0041 c -1.17734,1.67e-4 -2.125,0.863587 -2.12484,1.935903 1.4e-4,1.072314 0.94809,1.935437 2.12541,1.935264 l 29.31457,-0.0044 c 1.1773,-1.77e-4 2.12498,-0.863591 2.12482,-1.935907 -7.2e-4,-0.0088 2.6e-4,-0.01628 -4.9e-4,-0.02498 l -0.002,-12.891183 10.33037,-0.0031 c 0.38874,-7.7e-5 0.70166,-0.504275 0.7016,-0.85834 l -10e-4,-9.255501 c 3.9e-4,-0.354069 -0.4533,-0.712104 -0.84206,-0.712049 l -10.20343,0.0015 0.003,10.810546 -4.23344,6.24e-4 -0.002,-10.810549 z" />
    <g
       id="rect2648"
       transform="rotate(-30.081268)" />
  </g>
</svg>
